<svg width="200" height="137" viewBox="0 0 200 137" fill="none" xmlns="http://www.w3.org/2000/svg">
<path fill-rule="evenodd" clip-rule="evenodd" d="M147.215 120.928C147.215 125.137 128.17 128.91 104.677 128.91C81.1841 128.91 62.1387 125.137 62.1387 120.928C62.1387 116.718 81.1841 113.305 104.677 113.305C128.17 113.305 147.215 116.718 147.215 120.928Z" fill="#F0F0F0"/>
<path fill-rule="evenodd" clip-rule="evenodd" d="M146.032 110.842C146.032 114.149 127.641 117.112 104.953 117.112C82.2661 117.112 63.875 114.149 63.875 110.842C63.875 107.536 82.2661 104.855 104.953 104.855C127.641 104.855 146.032 107.536 146.032 110.842Z" stroke="#213F7D" stroke-width="1.75"/>
<path fill-rule="evenodd" clip-rule="evenodd" d="M146.032 83.8861C146.032 87.1926 127.641 90.1553 104.953 90.1553C82.2661 90.1553 63.875 87.1926 63.875 83.8861C63.875 80.579 82.2661 77.8984 104.953 77.8984C127.641 77.8984 146.032 80.579 146.032 83.8861Z" stroke="#213F7D" stroke-width="1.75"/>
<path fill-rule="evenodd" clip-rule="evenodd" d="M142.301 40.7787C142.301 42.8314 125.535 44.6711 104.853 44.6711C84.1709 44.6711 67.4048 42.8314 67.4048 40.7787C67.4048 38.7254 84.1709 37.061 104.853 37.061C125.535 37.061 142.301 38.7254 142.301 40.7787Z" stroke="#213F7D" stroke-width="1.765"/>
<path fill-rule="evenodd" clip-rule="evenodd" d="M146.032 83.4663C146.032 83.4663 153.334 86.1216 168.913 84.0761V110.724C168.913 110.724 166.332 111.443 162.09 111.761C158.003 112.068 152.376 112.003 146.032 110.566V83.4663Z" stroke="#213F7D" stroke-width="1.908" stroke-linejoin="round"/>
<path d="M151.47 84.5195V111.91" stroke="#213F7D" stroke-width="1.908" stroke-linejoin="round"/>
<path d="M161.359 84.7632V111.91" stroke="#213F7D" stroke-width="1.908" stroke-linejoin="round"/>
<path fill-rule="evenodd" clip-rule="evenodd" d="M106.029 17.5457C106.212 17.6219 125.88 26.3177 131.824 36.1761C136.607 44.1103 137.801 49.2186 137.729 72.5384C137.714 77.6474 137.703 82.97 137.697 88.1828C138.135 88.103 138.567 88.0202 138.985 87.9361C138.992 82.8032 139.002 77.5682 139.018 72.5414C139.09 49.1802 137.795 43.6943 132.977 35.7026C126.845 25.5303 107.373 16.9143 106.609 16.5962C106.516 16.5572 106.416 16.5386 106.319 16.5386C106.083 16.5386 105.857 16.646 105.744 16.8315C105.583 17.0938 105.711 17.4131 106.029 17.5457Z" fill="#213F7D"/>
<path fill-rule="evenodd" clip-rule="evenodd" d="M137.311 33.9862C143.634 41.5578 145.018 45.4916 145.242 70.0737L145.237 70.0827C145.439 92.1084 145.272 117.4 145.242 121.58C145.239 121.911 145.562 122.179 145.963 122.181C146.365 122.184 146.693 121.919 146.695 121.587C146.726 117.404 146.892 92.1054 146.691 70.0737C146.474 46.3727 145.404 41.5614 138.509 33.305C130.428 23.6273 110.57 16.9356 106.78 16.1421C106.78 16.1421 105.245 16.6151 107.476 17.3587C110.863 18.4877 129.575 24.7214 137.311 33.9862Z" fill="#213F7D"/>
<path fill-rule="evenodd" clip-rule="evenodd" d="M137.775 124.727C137.775 125.012 138.063 125.243 138.418 125.243C138.775 125.242 139.063 125.011 139.062 124.725C139.062 124.617 139.055 120.361 139.051 113.839C138.65 113.939 138.217 114.042 137.762 114.144C137.767 120.494 137.774 124.621 137.775 124.727Z" fill="#213F7D"/>
<path d="M103.212 17.0366C103.212 17.0366 84.1236 25.0704 78.0163 35.2763C73.1895 43.3413 71.9715 48.7401 72.0435 72.147C72.1169 96.4031 72.0704 125.079 72.0704 125.079" stroke="#213F7D" stroke-width="1.778" stroke-linecap="round"/>
<path d="M103.581 17.3535C103.581 17.3535 94.6753 24.3975 89.1992 34.7019C84.821 42.9397 83.7754 47.5583 83.6001 71.8139C83.4249 96.07 83.4947 127.113 83.4947 127.113" stroke="#213F7D" stroke-width="1.778" stroke-linecap="round"/>
<path d="M103.297 17.2056C103.297 17.2056 101.441 27.1822 99.8148 39.6437C98.3453 50.9096 98.6528 55.4651 98.5278 72.538C98.3511 96.7948 98.9713 128.191 98.9713 128.191" stroke="#213F7D" stroke-width="1.778" stroke-linecap="round"/>
<path d="M105.245 17.5703C105.245 17.5703 115.672 23.9821 121.218 35.3249C125.262 43.595 126.642 48.0521 126.817 72.064C126.993 96.0766 126.922 126.808 126.922 126.808" stroke="#213F7D" stroke-width="1.772" stroke-linecap="round"/>
<path d="M104.517 17.5703C104.517 17.5703 110.706 31.6352 112.134 41.6206C113.749 52.9172 113.749 56.7816 113.873 73.5841C114.051 97.4564 113.978 128.008 113.978 128.008" stroke="#213F7D" stroke-width="1.772" stroke-linecap="round"/>
<path fill-rule="evenodd" clip-rule="evenodd" d="M62.999 69.3451C62.7794 93.3275 62.9968 121.17 62.999 121.448H64.4533C64.4511 121.171 64.2337 93.3281 64.4533 69.3541C64.6772 44.7726 66.0559 40.8293 72.3777 33.2577C81.0366 22.8897 102.671 17.1541 102.861 17.1031L103.489 15.8667C102.696 16.0828 80.1197 21.8712 71.1809 32.5764C64.286 40.8335 63.2149 45.6441 62.999 69.3451Z" fill="#213F7D"/>
<path fill-rule="evenodd" clip-rule="evenodd" d="M112.298 7.42281C112.298 10.9694 108.814 13.845 104.517 13.845C100.221 13.845 96.7368 10.9694 96.7368 7.42281C96.7368 3.87559 100.221 1 104.517 1C108.814 1 112.298 3.87559 112.298 7.42281Z" stroke="#213F7D" stroke-width="1.78"/>
<path fill-rule="evenodd" clip-rule="evenodd" d="M109.989 16.3552C109.989 16.8401 107.57 17.2333 104.586 17.2333C101.603 17.2333 99.2618 16.8359 99.184 16.3552C99.1011 15.8402 99.2371 15.7712 99.2371 15.7712C100.12 15.4819 102.463 15.4771 104.586 15.4771C106.573 15.4771 108.708 15.6013 109.694 15.6727C110.166 15.7069 109.989 16.1925 109.989 16.3552Z" fill="#213F7D"/>
<path fill-rule="evenodd" clip-rule="evenodd" d="M109.989 15.8582C109.989 16.2051 107.57 16.4854 104.586 16.4854C101.603 16.4854 99.1841 16.2051 99.1841 15.8582C99.1841 15.5119 101.603 15.231 104.586 15.231C107.57 15.231 109.989 15.5119 109.989 15.8582Z" fill="#213F7D"/>
<path fill-rule="evenodd" clip-rule="evenodd" d="M52.8487 27.2144C52.736 27.5313 52.6196 27.805 52.6589 27.6766C52.6974 27.5505 52.6756 27.1796 52.6363 26.7882C52.632 26.7792 52.6269 26.7696 52.6218 26.7606C52.1557 25.9239 50.6941 24.5003 48.6567 22.7777C48.6567 23.304 48.3513 23.7392 48.3513 23.7392C48.3513 23.7392 48.4625 23.0063 48.1542 22.3911C47.5339 21.872 47.0984 21.5166 46.3734 20.9314C45.082 19.8895 44.9409 18.7977 44.3607 17.9814C44.3628 18.3169 44.3767 18.6428 44.3767 18.6428C44.3767 18.3235 44.2618 17.9952 44.1491 17.6789C43.3361 16.4863 42.6737 15.2379 42.1952 14.7055C41.3452 13.7596 39.9403 12.4043 39.9403 12.4043C39.5964 12.7284 39.4713 14.2859 39.7505 16.2648C39.9047 16.7984 40.165 17.5361 40.6798 17.7269C40.6798 17.7269 40.293 17.6225 39.9614 17.4664C40.4071 19.5798 41.3044 21.9506 42.8249 23.7806C43.2707 24.0597 43.8858 24.3328 44.6355 24.4102C44.6355 24.4102 44.1294 24.5657 43.5877 24.6293C47.0213 28.2011 50.1131 29.3421 53.7569 29.7797C53.7569 29.7797 53.3424 28.2948 52.8487 27.2144Z" fill="url(#paint0_linear_366_5369)"/>
<path fill-rule="evenodd" clip-rule="evenodd" d="M48.0375 25.4479C52.0346 28.5864 54.027 29.7796 55.5984 31.8419L56.9473 33.5051L57.6875 33.7494C57.6875 33.7494 55.0247 30.3312 53.361 29.0491C51.6972 27.7677 48.5821 25.622 47.0391 24.2271C45.0976 22.4721 43.8455 20.615 42.9533 19.1763C41.9767 17.6026 41.0859 15.4683 41.0859 15.4683C41.0859 15.4683 42.6806 21.2428 48.0375 25.4479Z" fill="#F0F0F0"/>
<path fill-rule="evenodd" clip-rule="evenodd" d="M19.7799 60.7766C19.7799 60.7766 19.3473 59.4202 16.947 59.7821C16.6336 59.8295 15.9435 59.9784 15.545 60.072C16.8226 60.2142 17.4043 60.7784 17.4043 60.7784L16.7652 60.5774C15.8003 60.2851 14.8215 60.4579 14.2216 60.4393C12.3492 60.9645 10.7037 61.6373 8.48076 62.5635C7.78051 62.8552 7.15007 63.1469 6.57708 63.435C7.23297 63.3779 7.89395 63.459 9.01812 63.6882C9.01812 63.6882 7.13553 63.8077 6.12043 64.0262C5.75467 64.1042 5.36855 64.2014 5.02316 64.295C1.37795 66.5224 1.17872 68.3657 1.17872 68.3657C0.298864 70.0054 0.330859 72.3366 0.330859 72.3366C0.330859 72.3366 0.770057 72.2214 3.30127 72.183C6.77559 72.1313 9.83471 69.4412 11.2308 68.3032C11.9064 67.7534 12.6539 67.3255 13.4392 66.9444C13.4937 66.8075 13.5664 66.6431 13.6639 66.442C14.0704 65.6071 13.8638 64.3917 13.8638 64.3917C13.8638 64.3917 14.2398 64.5819 14.3074 65.4637C14.3474 65.9726 14.2812 66.2307 14.2143 66.5374C15.9246 65.7908 17.7345 65.0873 19.3553 63.8755C20.891 63.0226 20.9848 61.8648 19.7261 61.0131C19.3509 60.7592 19.7799 60.7766 19.7799 60.7766Z" fill="url(#paint1_linear_366_5369)"/>
<path fill-rule="evenodd" clip-rule="evenodd" d="M4.13623 68.8211C4.13623 68.8211 11.9327 62.2038 24.9385 59.2202C24.9385 59.2202 24.4623 59.6902 24.0042 59.893C23.546 60.0959 20.8483 60.6331 17.3624 61.9662C17.3624 61.9662 12.0149 63.9775 8.54349 66.0326C8.54349 66.0326 5.4691 67.982 4.13623 68.8211Z" fill="url(#paint2_linear_366_5369)"/>
<path fill-rule="evenodd" clip-rule="evenodd" d="M158.658 12.8315L158.541 12.3099C158.541 12.3099 158.496 13.5481 157.885 14.1447L157.928 13.4869L157.795 13.9784C157.754 14.1291 157.519 14.4748 157.415 14.5895C156.729 15.3445 155.916 15.9909 154.719 16.4039L154.869 15.9153C154.869 15.9153 154.318 16.5041 153.616 16.6386L153.853 16.114C153.258 16.5101 152.841 16.6482 152.841 16.6482L152.356 16.7778C149.553 17.2754 148.416 16.1602 148.023 15.644C147.919 15.5078 147.917 15.3637 148.008 15.2755C148.452 14.8475 149.627 14.3061 151.824 13.4869C152.724 13.5163 153.638 13.4023 153.638 13.4023C153.286 13.4239 152.513 13.3134 151.956 13.2216C153.274 12.4089 154.502 11.3015 154.941 9.72298C155.427 9.43969 156.286 9.03575 156.286 9.03575C156.015 9.07956 155.387 9.30644 155.018 9.45409C155.468 7.49022 157.227 7.94012 157.415 7.49926C157.732 6.75618 158.963 8.05441 159.168 9.74579C159.193 9.96247 159.208 10.2662 159.193 10.6269C158.68 9.97987 158.216 9.59094 158.216 9.59094C158.216 9.59094 159.053 10.3634 159.009 11.6292C158.989 12.2048 158.838 12.4101 158.658 12.8315Z" fill="url(#paint3_linear_366_5369)"/>
<path fill-rule="evenodd" clip-rule="evenodd" d="M151.874 15.2043C151.874 15.2043 155.341 14.5807 156.561 11.8792C157.58 9.62541 157.694 6.37289 157.694 6.37289L157.732 5.35674L157.335 4.06689C157.335 4.06689 157.226 8.51562 156.833 9.96933C156.484 11.2604 156.031 12.6282 154.542 13.6894C153.024 14.7704 150.919 15.2848 150.919 15.2848L151.874 15.2043Z" fill="url(#paint4_linear_366_5369)"/>
<path fill-rule="evenodd" clip-rule="evenodd" d="M183.978 102.038C184.352 102.724 184.659 102.908 185.133 103.341L184.956 102.664C184.956 102.664 185.763 104.138 186.863 104.603L186.412 103.827L186.871 104.365C187.011 104.53 187.505 104.849 187.699 104.944C188.987 105.569 190.359 106.01 192.053 106.012L191.574 105.485C191.574 105.485 192.597 105.966 193.525 105.837L192.92 105.303C193.877 105.534 194.465 105.527 194.465 105.527L195.129 105.482C198.809 104.92 199.5 103.104 199.658 102.32C199.701 102.112 199.616 101.937 199.452 101.869C198.658 101.538 196.43 101.574 194.001 101.14C192.934 101.55 191.529 101.946 191.529 101.946C191.966 101.826 192.83 101.373 193.445 101.031C191.362 100.599 189.208 99.7736 187.719 98.0534C186.961 97.9135 185.68 97.7833 185.68 97.7833C186.033 97.7245 186.929 97.7371 187.462 97.7617C185.725 95.5823 185.647 96.1987 184.994 95.9256C183.626 95.3524 181.857 97.7113 182.641 99.8348C182.74 100.105 182.907 100.478 183.145 100.906C183.369 99.9146 183.691 99.2526 183.691 99.2526C183.691 99.2526 183.154 100.53 183.978 102.038Z" fill="url(#paint5_linear_366_5369)"/>
<path fill-rule="evenodd" clip-rule="evenodd" d="M194.751 103.386C194.751 103.386 190.194 104.073 187.079 101.323C184.479 99.03 182.363 95.1587 182.363 95.1587L181.697 93.9492L181.391 92.2314C181.391 92.2314 184.231 97.5469 185.589 99.135C186.795 100.546 188.173 102.006 190.614 102.667C193.101 103.341 195.95 103.087 195.95 103.087L194.751 103.386Z" fill="url(#paint6_linear_366_5369)"/>
<path fill-rule="evenodd" clip-rule="evenodd" d="M182.184 42.727C182.184 42.727 182.13 42.688 182.055 42.6093C182.097 42.6603 182.139 42.7024 182.184 42.727ZM189.761 35.8726C190.106 35.6728 190.438 35.0918 190.622 34.7268C190.619 34.6926 190.617 34.6584 190.614 34.6242C190.327 34.8469 189.744 35.0137 189.744 35.0137C189.744 35.0137 190.542 34.3391 190.329 33.3662C190.003 32.3764 189.53 31.5938 189.53 31.5938C189.53 31.5938 189.413 31.8536 188.451 32.2846C187.825 32.5661 187.304 33.0072 187.066 33.5618C187.01 33.6891 186.973 33.8103 186.964 33.9183C186.964 33.9183 186.938 33.578 186.929 33.1513C186.775 33.2335 186.491 33.4082 186.271 33.6032C186.08 33.8985 185.7 34.4147 185.661 34.9477C185.661 34.9477 185.548 34.7214 185.383 34.3301C183.611 35.8768 184.498 36.3444 183.137 38.8394C183.137 38.8394 182.155 39.8544 182.055 40.0945C181.777 40.7655 181.728 42.191 182.041 42.5961C181.886 42.4287 181.649 42.092 181.564 41.5164C181.501 41.086 181.558 40.9384 181.473 40.6779C180.881 41.3645 180.332 41.9557 179.828 42.6189C179.261 43.365 179.002 44.2479 179.054 45.1278C179.081 45.5858 179.114 45.9303 179.114 45.9303C178.758 45.6776 178.622 45.0228 178.688 44.4424C177.923 45.6596 178.254 47.3012 178.974 47.5016C179.374 47.6139 179.037 47.7033 179.037 47.7033C179.037 47.7033 179.998 48.5838 181.771 47.4134C182.004 47.2603 182.494 46.8894 182.773 46.6697C181.677 47.0359 180.953 46.8186 180.953 46.8186L181.56 46.7346C182.432 46.6061 183.12 46.147 183.61 45.9237C183.651 45.8979 183.69 45.8739 183.731 45.8481C185.132 45.0138 185.955 44.3926 187.354 42.1286C187.685 41.592 188.165 41.1856 188.498 40.7511C187.994 41.0392 187.424 41.2223 186.413 41.4653C186.413 41.4653 187.879 40.6725 188.6 40.1281C188.717 40.0399 188.836 39.9462 188.953 39.8526C189.221 39.6371 189.45 39.3844 189.613 39.1059C190.63 37.3677 190.775 36.1883 190.741 35.5443C190.402 35.7118 189.761 35.8726 189.761 35.8726Z" fill="url(#paint7_linear_366_5369)"/>
<path fill-rule="evenodd" clip-rule="evenodd" d="M175.574 50.817C175.574 50.817 175.747 50.2792 176.026 49.9527C176.304 49.6268 178.239 48.2109 180.453 45.8905C180.453 45.8905 183.864 42.3583 185.741 39.4887C185.741 39.4887 187.344 36.8484 188.042 35.708C188.042 35.708 185.855 42.4429 175.574 50.817Z" fill="url(#paint8_linear_366_5369)"/>
<path fill-rule="evenodd" clip-rule="evenodd" d="M34.9518 106.242C34.9518 106.242 40.711 105.906 44.8452 102.492C48.2943 99.6429 51.2249 95.3399 51.2249 95.3399L52.1457 93.9951L52.6396 92.2266C52.6396 92.2266 48.701 98.1195 46.8753 99.9941C45.254 101.658 43.4108 103.411 40.2637 104.608C37.0542 105.83 33.4423 106.213 33.4423 106.213L34.9518 106.242Z" fill="url(#paint9_linear_366_5369)"/>
<path fill-rule="evenodd" clip-rule="evenodd" d="M92.3642 72.8682C92.7386 73.5537 93.0448 73.7379 93.5196 74.1707L93.3422 73.4942C93.3422 73.4942 94.1493 74.9677 95.2495 75.4329L94.7979 74.6568L95.2568 75.1946C95.3971 75.3597 95.8916 75.679 96.0857 75.7738C97.3728 76.3992 98.7449 76.8404 100.439 76.8416L99.9607 76.3146C99.9607 76.3146 100.983 76.7966 101.911 76.6669L101.307 76.1327C102.264 76.3638 102.851 76.3572 102.851 76.3572L103.515 76.3122C107.195 75.7504 107.886 73.9336 108.044 73.1497C108.087 72.9421 108.002 72.7668 107.839 72.699C107.044 72.3677 104.817 72.4043 102.387 71.9703C101.32 72.3797 99.9149 72.7764 99.9149 72.7764C100.352 72.6564 101.216 72.2032 101.832 71.8611C99.7484 71.4289 97.5945 70.6036 96.1053 68.8835C95.3469 68.7436 94.0664 68.6134 94.0664 68.6134C94.4191 68.5545 95.3149 68.5671 95.8487 68.5918C94.1115 66.4124 94.0337 67.0288 93.3807 66.7557C92.0122 66.1825 90.2431 68.5413 91.0269 70.6649C91.1265 70.9356 91.2931 71.3083 91.5308 71.7362C91.7555 70.7447 92.0777 70.0827 92.0777 70.0827C92.0777 70.0827 91.5403 71.3599 92.3642 72.8682Z" fill="url(#paint10_linear_366_5369)"/>
<path fill-rule="evenodd" clip-rule="evenodd" d="M103.137 74.2164C103.137 74.2164 98.5802 74.903 95.4651 72.1535C92.8656 69.8601 90.7488 65.9887 90.7488 65.9887L90.0835 64.7793L89.7773 63.0615C89.7773 63.0615 92.6169 68.377 93.9752 69.9651C95.1815 71.3756 96.5595 72.8365 98.9998 73.4973C101.487 74.1707 104.336 73.9169 104.336 73.9169L103.137 74.2164Z" fill="url(#paint11_linear_366_5369)"/>
<defs>
<linearGradient id="paint0_linear_366_5369" x1="60.8413" y1="19.0963" x2="41.6031" y2="9.258" gradientUnits="userSpaceOnUse">
<stop stop-color="#57D4D4" stop-opacity="0.5"/>
<stop offset="1" stop-color="#213F7D" stop-opacity="0.5"/>
</linearGradient>
<linearGradient id="paint1_linear_366_5369" x1="2.64166" y1="81.7072" x2="29.7385" y2="56.4476" gradientUnits="userSpaceOnUse">
<stop stop-color="#F6FAFF"/>
<stop offset="1" stop-color="#B3BBD1"/>
</linearGradient>
<linearGradient id="paint2_linear_366_5369" x1="14.3424" y1="73.2294" x2="30.6708" y2="52.4729" gradientUnits="userSpaceOnUse">
<stop stop-color="#F6FAFF"/>
<stop offset="1" stop-color="#B3BBD1"/>
</linearGradient>
<linearGradient id="paint3_linear_366_5369" x1="151.784" y1="1.78549" x2="145.035" y2="15.8693" gradientUnits="userSpaceOnUse">
<stop stop-color="#E6EAF5"/>
<stop offset="1" stop-color="#BCC4DB"/>
</linearGradient>
<linearGradient id="paint4_linear_366_5369" x1="161.354" y1="15.3264" x2="162.682" y2="-4.51933" gradientUnits="userSpaceOnUse">
<stop stop-color="#F6FAFF"/>
<stop offset="1" stop-color="#B3BBD1"/>
</linearGradient>
<linearGradient id="paint5_linear_366_5369" x1="208.285" y1="99.7565" x2="194.418" y2="85.0248" gradientUnits="userSpaceOnUse">
<stop stop-color="#57D4D4" stop-opacity="0.5"/>
<stop offset="1" stop-color="#213F7D" stop-opacity="0.5"/>
</linearGradient>
<linearGradient id="paint6_linear_366_5369" x1="203.234" y1="96.557" x2="188.218" y2="84.3413" gradientUnits="userSpaceOnUse">
<stop stop-color="#57D4D4" stop-opacity="0.5"/>
<stop offset="1" stop-color="#213F7D" stop-opacity="0.5"/>
</linearGradient>
<linearGradient id="paint7_linear_366_5369" x1="177.61" y1="23.566" x2="165.221" y2="50.7413" gradientUnits="userSpaceOnUse">
<stop stop-color="#E6EAF5"/>
<stop offset="1" stop-color="#BCC4DB"/>
</linearGradient>
<linearGradient id="paint8_linear_366_5369" x1="172.505" y1="31.9308" x2="163.763" y2="53.4617" gradientUnits="userSpaceOnUse">
<stop stop-color="#F6FAFF"/>
<stop offset="1" stop-color="#B3BBD1"/>
</linearGradient>
<linearGradient id="paint9_linear_366_5369" x1="70.542" y1="97.586" x2="65.4948" y2="79.7116" gradientUnits="userSpaceOnUse">
<stop stop-color="#F6FAFF"/>
<stop offset="1" stop-color="#B3BBD1"/>
</linearGradient>
<linearGradient id="paint10_linear_366_5369" x1="116.672" y1="70.5865" x2="102.804" y2="55.8549" gradientUnits="userSpaceOnUse">
<stop stop-color="#57D4D4" stop-opacity="0.5"/>
<stop offset="1" stop-color="#213F7D" stop-opacity="0.5"/>
</linearGradient>
<linearGradient id="paint11_linear_366_5369" x1="111.62" y1="67.3871" x2="96.6039" y2="55.1714" gradientUnits="userSpaceOnUse">
<stop stop-color="#57D4D4" stop-opacity="0.5"/>
<stop offset="1" stop-color="#213F7D" stop-opacity="0.5"/>
</linearGradient>
</defs>
</svg>
